<svg xmlns="http://www.w3.org/2000/svg" width="267.2" height="255.1" viewBox="0 0 267.2 255.1"><circle cx="217.7" cy="48.8" r="34.6" fill="#673200"/><circle cx="215.2" cy="57.6" r="14.8" fill="#ffaaca"/><circle cx="49.5" cy="48.8" r="34.6" fill="#673200"/><circle cx="51.9" cy="57.6" r="14.8" fill="#ffaaca"/><circle cx="133.6" cy="132.8" r="108.1" fill="#673200"/><circle cx="133.6" cy="172.3" r="42.3" fill="#c65b00"/><path fill="#c65b00" d="M179.6 34.9A65.6 65.6 0 0 0 221.5 151a66.8 66.8 0 0 0 19.1-2.8 111.7 111.7 0 0 0 1.1-15.4 108.1 108.1 0 0 0-62.1-97.9zM25.5 132.8a111.7 111.7 0 0 0 1 15.4 67.5 67.5 0 0 0 19.2 2.8A65.6 65.6 0 0 0 87.6 34.9a108.1 108.1 0 0 0-62.1 97.9z"/><path fill="none" stroke="#000" stroke-linecap="round" stroke-linejoin="round" stroke-width="3" d="M106.8 186.7a37.4 37.4 0 0 0 52.7 0"/><circle cx="176.8" cy="106.1" r="9.3"/><circle cx="90.3" cy="106.1" r="9.3"/><circle cx="133.6" cy="137.7" r="13" fill="#ffaaca"/></svg>
